# xmcd
#
# Track frame offsets:
#	150
#	19357
#	31535
#	50340
#	86324
#	125875
#	157876
#	171763
#	191423
#
# Disc length: 2758 seconds
#
# Revision: 1
# Processed by: cddbd v1.5.1PL0 Copyright (c) Steve Scherf et al.
# Submitted via: CDmax 2.0
#
DISCID=650ac409
DTITLE=(Various Artists) - Radio Funk
DYEAR=2004
DGENRE=Funk
TTITLE0=Blow your head - Fed Wesley and the JBs
TTITLE1=65 Bars and A taste of Soul - Charles White and the Watts 103rd Stree
TTITLE1=t Band
TTITLE2=Hang out and Hustle - Sweet Charles and the JBs
TTITLE3=The Obstacle Course - Afroskull
TTITLE4=Eat This - Afroskull
TTITLE5=Funkin' in the Ghetto - Buddy Hank Band
TTITLE6=Jungle Boogie - Kool and the Gand
TTITLE7=Smell the Reality - The Bus
TTITLE8=Lippy - The Bus
EXTD=
EXTT0=
EXTT1=
EXTT2=
EXTT3=
EXTT4=
EXTT5=
EXTT6=
EXTT7=
EXTT8=
PLAYORDER=
